PathFileType	4	(X/Y/Z)	Run_300 01
DataRate	CameraRate	NumFrames	NumMarkers	Units	OrigDataRate	OrigDataStartFrame	OrigNumFrames
100	100	4	42	mm	100	403	128
Frame#	Time	LASI			RASI			LPSI			RPSI			RTH1			RTH2			RTH3			LTH1			LTH2			LTH3			RTB1			RTB2			RTB3			LTB1			LTB2			LTB3			RCAL			RTOE			RMT5			LCAL			LTOE			LACR			RACR			CLAV			C7			RUA1			RUA2			RUA3			RLEL			RMEL			LUA1			LUA2			LUA3			LLEL			LMEL			RFAsuperior			RFAradius			RFAulna			LFAsuperior			LFAradius			LFAulna			LMT5		
		X1	Y1	Z1	X2	Y2	Z2	X3	Y3	Z3	X4	Y4	Z4	X5	Y5	Z5	X6	Y6	Z6	X7	Y7	Z7	X8	Y8	Z8	X9	Y9	Z9	X10	Y10	Z10	X11	Y11	Z11	X12	Y12	Z12	X13	Y13	Z13	X14	Y14	Z14	X15	Y15	Z15	X16	Y16	Z16	X17	Y17	Z17	X18	Y18	Z18	X19	Y19	Z19	X20	Y20	Z20	X21	Y21	Z21	X22	Y22	Z22	X23	Y23	Z23	X24	Y24	Z24	X25	Y25	Z25	X26	Y26	Z26	X27	Y27	Z27	X28	Y28	Z28	X29	Y29	Z29	X30	Y30	Z30	X31	Y31	Z31	X32	Y32	Z32	X33	Y33	Z33	X34	Y34	Z34	X35	Y35	Z35	X36	Y36	Z36	X37	Y37	Z37	X38	Y38	Z38	X39	Y39	Z39	X40	Y40	Z40	X41	Y41	Z41	X42	Y42	Z42	

403	  4.030000	753.831891	1062.039231	-435.748070	739.058675	1037.619495	-180.495908	570.298308	1142.958437	-353.888459	569.986178	1135.437771	-268.892718	640.682889	911.343448	-134.929889	655.569565	767.725063	-155.345310	550.126885	688.436714	-179.179180	718.051098	968.327075	-497.370934	827.913541	891.689982	-468.536872	816.461306	737.759433	-461.889567	506.221688	439.878299	-243.712398	410.081247	380.717902	-198.140901	385.795767	280.434296	-259.825633	874.482941	523.855296	-392.490293	793.038222	474.368456	-460.776106	768.960796	345.696470	-384.821927	210.897099	256.042412	-297.004127	369.165689	 84.728977	-288.923218	308.447924	 71.882352	-217.628414	591.609919	269.582554	-373.931390	794.903125	158.119933	-366.458894	715.318560	1602.707464	-460.706572	722.824421	1573.404110	-131.720325	795.507908	1539.958290	-282.239658	659.707553	1614.605627	-310.106730	668.519439	1466.519684	-48.718510	589.725851	1396.657764	-69.545167	630.741321	1354.606628	-19.642661	616.989265	1258.917912	  2.149421	577.489617	1241.289703	-70.059994	629.965303	1549.590559	-556.859962	541.882246	1504.287427	-545.077682	559.663203	1470.329905	-616.992765	516.513539	1398.406379	-659.979737	457.097840	1393.735339	-607.834986	686.421368	1219.376293	-17.831443	860.362963	1223.439775	-125.215529	841.605826	1157.172921	-107.277725	567.531655	1287.416756	-625.484021	660.166663	1213.343290	-521.699482	606.160277	1175.011988	-537.212890	756.410550	140.907006	-447.307613	
404	  4.040000	755.306528	1067.100482	-436.460963	740.546390	1042.121973	-183.530623	571.973047	1147.641752	-354.025284	571.991060	1139.814383	-269.287359	641.522909	916.740513	-135.126333	656.168516	771.982206	-155.696614	550.128505	693.342892	-177.196365	715.861152	970.452072	-498.366599	826.403295	894.074358	-468.251670	813.283978	739.050003	-460.421074	498.990259	445.857704	-240.799486	401.262641	390.358134	-195.009475	371.996982	291.467305	-256.223830	879.914507	524.999811	-391.690262	803.033884	468.180003	-459.780779	789.257073	338.697555	-381.993723	197.630955	276.777599	-290.958514	346.990902	 96.581292	-289.624481	285.223457	 82.672865	-220.638109	618.926794	248.311769	-370.772418	830.011857	153.430558	-359.013310	714.057675	1607.355792	-460.800689	723.561276	1577.757582	-132.871639	795.147547	1544.692141	-283.543047	659.419777	1618.478926	-310.287057	669.605103	1471.665747	-49.596484	590.698717	1402.063360	-69.276880	631.679779	1360.362657	-19.084896	617.765974	1264.052965	  2.608680	577.542824	1246.525215	-69.385665	627.326370	1556.399306	-556.055551	539.079621	1512.129584	-543.856432	555.324212	1478.835183	-616.423216	510.290787	1407.710448	-659.435619	451.619894	1403.758084	-606.425025	686.986124	1225.133858	-18.419949	859.621624	1231.664581	-129.424911	842.012409	1165.060802	-109.862685	560.908301	1296.527708	-626.058822	654.614814	1221.256786	-523.326896	599.853480	1183.698369	-537.861486	793.394450	130.075391	-439.114255	
405	  4.050000	755.414589	1071.107448	-437.183703	741.955981	1045.977094	-186.410314	572.269492	1151.278723	-354.158879	573.253287	1143.884667	-269.510033	643.501264	921.179177	-135.352977	658.637854	775.388938	-156.428541	552.398440	696.728831	-175.187897	713.474159	970.661375	-499.299334	824.306330	894.491991	-467.809649	809.263935	738.560287	-459.971618	493.494120	450.731089	-238.277905	393.672449	399.677012	-192.522842	358.642921	303.124225	-253.834763	883.107462	524.611858	-391.019616	811.600245	460.775013	-458.771528	807.919323	331.570808	-378.707998	183.497279	297.392629	-283.925208	324.785594	111.246760	-293.928732	265.023375	 95.692192	-224.682104	645.836176	227.361266	-366.821135	863.392218	150.185104	-351.454604	713.031119	1610.811570	-461.118505	724.056325	1580.868043	-133.799236	794.999830	1548.300160	-284.562301	659.170504	1621.308159	-310.481582	670.291834	1474.846586	-50.718334	591.126269	1405.827164	-69.326534	632.142019	1364.411816	-18.958538	617.981915	1268.074252	  3.078264	577.002413	1250.524392	-68.851259	625.170305	1561.420873	-555.668861	536.650715	1518.026478	-542.733875	551.644067	1485.494688	-615.962177	505.245522	1415.025852	-659.094024	447.333959	1411.417417	-605.411638	686.724960	1229.258064	-18.949304	858.155078	1237.153058	-133.309047	841.575612	1170.244591	-111.693523	555.816393	1303.755924	-626.748233	650.296951	1227.523462	-524.727764	595.186846	1190.401338	-538.856074	829.275920	120.923824	-430.622367	
406	  4.060000	755.306655	1073.700144	-438.205970	743.413139	1049.411720	-188.299177	572.347089	1153.502232	-354.590866	573.921087	1147.725205	-269.527942	646.681348	924.211664	-135.679475	662.535410	777.817694	-157.685378	556.520180	698.690943	-173.548556	711.422519	969.641069	-499.865413	821.586055	892.791951	-467.587769	804.314581	736.530391	-460.328096	489.548890	454.724027	-236.515072	387.526148	408.664022	-190.676520	346.394471	315.243927	-252.546662	883.676173	522.518744	-390.326723	817.909789	452.443257	-457.367163	824.393552	324.256562	-375.360056	170.167517	318.489729	-277.357326	303.135435	127.442824	-299.452431	246.536386	110.892538	-227.972228	671.681551	207.053706	-362.407245	894.252357	148.378075	-344.313390	712.276805	1613.161513	-461.772262	724.315561	1582.843052	-134.548588	794.994083	1550.575639	-285.578406	658.949103	1623.241170	-310.841151	670.550757	1476.438535	-51.723253	590.928280	1408.125797	-69.796503	631.883595	1366.916009	-19.314519	617.548905	1270.926306	  3.180823	575.956140	1253.426032	-68.640277	623.615774	1564.794272	-555.811177	534.798192	1522.002955	-541.794120	548.743876	1490.306400	-615.627297	501.571497	1420.214252	-659.000546	444.337042	1416.573901	-604.826097	685.711500	1231.844240	-19.477623	856.083744	1239.322677	-135.745631	840.200732	1172.442135	-113.008241	552.441594	1308.963606	-627.619664	647.433919	1232.029954	-526.048912	592.287299	1194.990502	-540.158262	863.211975	113.552915	-422.462219	
